<svg xmlns="http://www.w3.org/2000/svg" width="26" height="31" viewBox="0 0 26 31" fill="none">
    <g clip-path="url(#clip0_768_413)">
      <path d="M21.9753 2.44964C20.5653 0.842558 18.0166 0.153564 14.756 0.153564H5.29284C4.97024 0.153576 4.65822 0.268671 4.41288 0.478154C4.16754 0.687638 4.00498 0.977771 3.95442 1.29639L0.0141314 26.2866C-0.0641887 26.7794 0.317394 27.2257 0.816861 27.2257H6.65909L8.12632 17.9193L8.08079 18.2107C8.18532 17.5529 8.74793 17.0677 9.41415 17.0677H12.1904C17.6442 17.0677 21.9147 14.8524 23.1622 8.44425C23.1992 8.25473 23.2313 8.07026 23.259 7.89004C23.1015 7.80667 23.1015 7.80667 23.259 7.89004C23.6305 5.52152 23.2565 3.90928 21.9753 2.44964Z" fill="#27346A"/>
      <path d="M10.3618 7.03682C10.5215 6.96077 10.6962 6.92136 10.8731 6.92147H18.292C19.1706 6.92147 19.99 6.97864 20.7388 7.09915C20.9483 7.13256 21.1568 7.17245 21.3638 7.21876C21.6573 7.28352 21.9474 7.36278 22.233 7.45625C22.6012 7.57919 22.944 7.72237 23.2591 7.89004C23.6305 5.52061 23.2565 3.90928 21.9753 2.44964C20.5645 0.842558 18.0166 0.153564 14.756 0.153564H5.29203C4.6257 0.153564 4.05885 0.638663 3.95442 1.29639L0.0141319 26.2857C-0.0641881 26.7793 0.317394 27.225 0.816052 27.225H6.65909L9.70315 7.92121C9.73308 7.73147 9.80866 7.55184 9.9234 7.39779C10.0381 7.24373 10.1886 7.11985 10.3618 7.03682Z" fill="#27346A"/>
      <path d="M23.1616 8.44435C21.9141 14.8516 17.6438 17.0677 12.1898 17.0677H9.41276C8.74654 17.0677 8.18383 17.5529 8.08031 18.2108L6.25497 29.7822C6.18677 30.2135 6.52029 30.6043 6.95661 30.6043H11.8815C12.1636 30.6042 12.4364 30.5035 12.6509 30.3202C12.8654 30.1369 13.0074 29.8832 13.0515 29.6045L13.0995 29.3536L14.0277 23.4709L14.0875 23.1457C14.1316 22.8671 14.2736 22.6134 14.4881 22.4301C14.7025 22.2468 14.9753 22.1461 15.2574 22.146H15.9945C20.7652 22.146 24.5008 20.2078 25.5924 14.6024C26.0481 12.2599 25.8123 10.3041 24.607 8.93036C24.2414 8.51427 23.7873 8.17063 23.2584 7.89014C23.2298 8.07126 23.1987 8.25482 23.1616 8.44435Z" fill="#2790C3"/>
      <path d="M21.9529 7.36955C21.7584 7.31276 21.5621 7.26247 21.3642 7.21878C21.157 7.17323 20.9486 7.13362 20.7391 7.09999C19.9895 6.97866 19.1707 6.92139 18.2914 6.92139H10.8734C10.6963 6.92099 10.5215 6.96074 10.362 7.03766C10.1886 7.12043 10.038 7.24423 9.92324 7.39834C9.80846 7.55244 9.73297 7.7322 9.70331 7.92204L8.12659 17.9193L8.08105 18.2107C8.18477 17.5529 8.74738 17.0677 9.41371 17.0677H12.1907C17.6446 17.0677 21.915 14.8525 23.1624 8.44428C23.1996 8.25475 23.2307 8.0711 23.2594 7.89007C22.9434 7.72331 22.6015 7.57922 22.2333 7.45708C22.1404 7.42628 22.0469 7.3971 21.953 7.36955" fill="#1F264F"/>
    </g>
    <defs>
      <clipPath id="clip0_768_413">
        <rect width="25.9043" height="30.559" fill="white" transform="translate(0 0.0710449)"/>
      </clipPath>
    </defs>
  </svg>