<svg xmlns="http://www.w3.org/2000/svg" width="17" height="17" viewBox="0 0 17 17" fill="none">
    <path d="M8.46683 12.9516C8.70016 12.9516 8.8975 12.8709 9.05883 12.7096C9.22016 12.5482 9.30061 12.3511 9.30016 12.1182C9.30016 11.8849 9.21972 11.6876 9.05883 11.5262C8.89794 11.3649 8.70061 11.2845 8.46683 11.2849C8.2335 11.2849 8.03639 11.3656 7.8755 11.5269C7.71461 11.6882 7.63394 11.8854 7.6335 12.1182C7.6335 12.3516 7.71416 12.5489 7.8755 12.7102C8.03683 12.8716 8.23394 12.952 8.46683 12.9516ZM7.86683 10.3849H9.10016C9.10016 10.0182 9.14194 9.72936 9.2255 9.51825C9.30905 9.30713 9.54505 9.01825 9.9335 8.65158C10.2224 8.36269 10.4502 8.08758 10.6168 7.82625C10.7835 7.56491 10.8668 7.25113 10.8668 6.88491C10.8668 6.26269 10.6391 5.78491 10.1835 5.45158C9.72794 5.11825 9.18905 4.95158 8.56683 4.95158C7.9335 4.95158 7.4195 5.11825 7.02483 5.45158C6.63016 5.78491 6.35527 6.18491 6.20016 6.65158L7.30016 7.08491C7.35572 6.88491 7.48083 6.66825 7.6755 6.43491C7.87016 6.20158 8.16727 6.08491 8.56683 6.08491C8.92239 6.08491 9.18905 6.18225 9.36683 6.37691C9.54461 6.57158 9.6335 6.78536 9.6335 7.01825C9.6335 7.24047 9.56683 7.44891 9.4335 7.64358C9.30016 7.83825 9.1335 8.01869 8.9335 8.18491C8.44461 8.61825 8.14461 8.94602 8.0335 9.16825C7.92239 9.39047 7.86683 9.79602 7.86683 10.3849ZM8.50016 15.6182C7.57794 15.6182 6.71127 15.4431 5.90016 15.0929C5.08905 14.7427 4.3835 14.2678 3.7835 13.6682C3.1835 13.0682 2.70861 12.3627 2.35883 11.5516C2.00905 10.7405 1.83394 9.8738 1.8335 8.95158C1.8335 8.02936 2.00861 7.16269 2.35883 6.35158C2.70905 5.54047 3.18394 4.83491 3.7835 4.23491C4.3835 3.63491 5.08905 3.16002 5.90016 2.81025C6.71127 2.46047 7.57794 2.28536 8.50016 2.28491C9.42239 2.28491 10.2891 2.46002 11.1002 2.81025C11.9113 3.16047 12.6168 3.63536 13.2168 4.23491C13.8168 4.83491 14.2919 5.54047 14.6422 6.35158C14.9924 7.16269 15.1673 8.02936 15.1668 8.95158C15.1668 9.8738 14.9917 10.7405 14.6415 11.5516C14.2913 12.3627 13.8164 13.0682 13.2168 13.6682C12.6168 14.2682 11.9113 14.7434 11.1002 15.0936C10.2891 15.4438 9.42239 15.6187 8.50016 15.6182ZM8.50016 14.2849C9.98905 14.2849 11.2502 13.7682 12.2835 12.7349C13.3168 11.7016 13.8335 10.4405 13.8335 8.95158C13.8335 7.46269 13.3168 6.20158 12.2835 5.16825C11.2502 4.13491 9.98905 3.61825 8.50016 3.61825C7.01127 3.61825 5.75016 4.13491 4.71683 5.16825C3.6835 6.20158 3.16683 7.46269 3.16683 8.95158C3.16683 10.4405 3.6835 11.7016 4.71683 12.7349C5.75016 13.7682 7.01127 14.2849 8.50016 14.2849Z" fill="#3040D0"/>
  </svg>