<svg xmlns="http://www.w3.org/2000/svg" width="64" height="58" viewBox="0 0 64 58" fill="none">
    <g clip-path="url(#clip0_489_832)">
        <path
            d="M36.1386 11.073C26.1986 11.073 17.518 17.1241 12.6867 22.3012L3.03837 15.0039C1.69824 13.9897 -0.30258 15.0702 0.0399116 16.6236L2.71135 28.75L0.0388068 40.8775C-0.303685 42.4309 1.69713 43.5103 3.03727 42.4972L12.6856 35.1999C17.5169 40.3759 26.1986 46.427 36.1386 46.427C51.3253 46.427 63.6373 32.2854 63.6373 28.75C63.6373 25.2146 51.3253 11.073 36.1386 11.073ZM45.7979 31.4016C44.3341 31.4016 43.1464 30.2139 43.1464 28.75C43.1464 27.285 44.3341 26.0984 45.7979 26.0984C47.2629 26.0984 48.4495 27.285 48.4495 28.75C48.4495 30.2139 47.2618 31.4016 45.7979 31.4016Z"
            fill="#D94415" />
    </g>
    <defs>
        <clipPath id="clip0_489_832">
            <rect width="63.6372" height="56.5664" fill="white" transform="translate(0 0.466797)" />
        </clipPath>
    </defs>
</svg>