<svg xmlns="http://www.w3.org/2000/svg" width="25" height="25" viewBox="0 0 25 25" fill="none">
    <path d="M11.2944 17.4194H13.2944V11.4194H11.2944V17.4194ZM12.2944 9.41943C12.5778 9.41943 12.8154 9.32343 13.0074 9.13143C13.1994 8.93943 13.2951 8.7021 13.2944 8.41943C13.2944 8.1361 13.1984 7.89843 13.0064 7.70643C12.8144 7.51443 12.5771 7.41877 12.2944 7.41943C12.0111 7.41943 11.7734 7.51543 11.5814 7.70743C11.3894 7.89943 11.2938 8.13677 11.2944 8.41943C11.2944 8.70277 11.3904 8.94043 11.5824 9.13243C11.7744 9.32443 12.0118 9.4201 12.2944 9.41943ZM12.2944 22.4194C10.9111 22.4194 9.6111 22.1568 8.39443 21.6314C7.17777 21.1061 6.11943 20.3938 5.21943 19.4944C4.31943 18.5944 3.6071 17.5361 3.08243 16.3194C2.55777 15.1028 2.2951 13.8028 2.29443 12.4194C2.29443 11.0361 2.5571 9.7361 3.08243 8.51943C3.60777 7.30277 4.3201 6.24443 5.21943 5.34443C6.11943 4.44443 7.17777 3.7321 8.39443 3.20743C9.6111 2.68277 10.9111 2.4201 12.2944 2.41943C13.6778 2.41943 14.9778 2.6821 16.1944 3.20743C17.4111 3.73277 18.4694 4.4451 19.3694 5.34443C20.2694 6.24443 20.9821 7.30277 21.5074 8.51943C22.0328 9.7361 22.2951 11.0361 22.2944 12.4194C22.2944 13.8028 22.0318 15.1028 21.5064 16.3194C20.9811 17.5361 20.2688 18.5944 19.3694 19.4944C18.4694 20.3944 17.4111 21.1071 16.1944 21.6324C14.9778 22.1578 13.6778 22.4201 12.2944 22.4194ZM12.2944 20.4194C14.5278 20.4194 16.4194 19.6444 17.9694 18.0944C19.5194 16.5444 20.2944 14.6528 20.2944 12.4194C20.2944 10.1861 19.5194 8.29443 17.9694 6.74443C16.4194 5.19443 14.5278 4.41943 12.2944 4.41943C10.0611 4.41943 8.16943 5.19443 6.61943 6.74443C5.06943 8.29443 4.29443 10.1861 4.29443 12.4194C4.29443 14.6528 5.06943 16.5444 6.61943 18.0944C8.16943 19.6444 10.0611 20.4194 12.2944 20.4194Z" fill="#3040D0"/>
  </svg>