<svg xmlns="http://www.w3.org/2000/svg"
    width="32"
    height="33"
    viewBox="0 0 42 43"
    fill="none">
    <path
        d="M29.8375 35.668C28.1225 37.3305 26.25 37.068 24.4475 36.2805C22.54 35.4755 20.79 35.4405 18.7775 36.2805C16.2575 37.3655 14.9275 37.0505 13.4225 35.668C4.88254 26.8655 6.14254 13.4605 15.8375 12.9705C18.2 13.093 19.845 14.2655 21.2275 14.3705C23.2925 13.9505 25.27 12.743 27.475 12.9005C30.1175 13.1105 32.1125 14.1605 33.425 16.0505C27.965 19.323 29.26 26.5155 34.265 28.528C33.2675 31.153 31.9725 33.7605 29.82 35.6855L29.8375 35.668ZM21.0525 12.8655C20.79 8.96298 23.9575 5.74298 27.5975 5.42798C28.105 9.94298 23.5025 13.303 21.0525 12.8655Z"
        fill="black" />
</svg>