<svg width="441" height="25" viewBox="0 0 441 25" fill="none" xmlns="http://www.w3.org/2000/svg">
<line x1="0.0859375" y1="11.678" x2="198" y2="11.678" stroke="black"/>
<path d="M222.657 12.3598C222.657 13.5871 222.436 14.6477 221.992 15.5416C221.549 16.4356 220.941 17.1249 220.169 17.6098C219.396 18.0946 218.513 18.3371 217.521 18.3371C216.528 18.3371 215.646 18.0946 214.873 17.6098C214.1 17.1249 213.492 16.4356 213.049 15.5416C212.606 14.6477 212.384 13.5871 212.384 12.3598C212.384 11.1325 212.606 10.0719 213.049 9.17798C213.492 8.28404 214.1 7.59465 214.873 7.1098C215.646 6.62495 216.528 6.38252 217.521 6.38252C218.513 6.38252 219.396 6.62495 220.169 7.1098C220.941 7.59465 221.549 8.28404 221.992 9.17798C222.436 10.0719 222.657 11.1325 222.657 12.3598ZM221.294 12.3598C221.294 11.3522 221.125 10.5018 220.788 9.80866C220.455 9.11548 220.002 8.59086 219.43 8.2348C218.862 7.87874 218.225 7.70071 217.521 7.70071C216.816 7.70071 216.178 7.87874 215.606 8.2348C215.038 8.59086 214.585 9.11548 214.248 9.80866C213.915 10.5018 213.748 11.3522 213.748 12.3598C213.748 13.3674 213.915 14.2178 214.248 14.9109C214.585 15.6041 215.038 16.1287 215.606 16.4848C216.178 16.8409 216.816 17.0189 217.521 17.0189C218.225 17.0189 218.862 16.8409 219.43 16.4848C220.002 16.1287 220.455 15.6041 220.788 14.9109C221.125 14.2178 221.294 13.3674 221.294 12.3598ZM224.845 18.178V9.45071H226.14V10.7689H226.231C226.39 10.3371 226.678 9.98669 227.095 9.71775C227.511 9.44881 227.981 9.31434 228.504 9.31434C228.602 9.31434 228.725 9.31624 228.873 9.32002C229.021 9.32381 229.133 9.32949 229.208 9.33707V10.7007C229.163 10.6893 229.059 10.6723 228.896 10.6496C228.737 10.6231 228.568 10.6098 228.39 10.6098C227.966 10.6098 227.587 10.6988 227.254 10.8768C226.924 11.0511 226.663 11.2935 226.47 11.6041C226.28 11.9109 226.186 12.2613 226.186 12.6553V18.178H224.845Z" fill="#776629"/>
<line x1="243" y1="11.678" x2="440.914" y2="11.678" stroke="black"/>
</svg>
