<svg xmlns="http://www.w3.org/2000/svg"
    width="32"
    height="33"
    viewBox="0 0 42 43"
    fill="none">
    <path
        d="M38.1596 18.3786H36.75V18.306H21V25.306H30.8901C29.4473 29.3808 25.5701 32.306 21 32.306C15.2014 32.306 10.5 27.6046 10.5 21.806C10.5 16.0073 15.2014 11.306 21 11.306C23.6766 11.306 26.1117 12.3157 27.9659 13.9651L32.9158 9.01522C29.7903 6.10234 25.6095 4.30597 21 4.30597C11.3356 4.30597 3.5 12.1416 3.5 21.806C3.5 31.4703 11.3356 39.306 21 39.306C30.6644 39.306 38.5 31.4703 38.5 21.806C38.5 20.6326 38.3792 19.4872 38.1596 18.3786Z"
        fill="#FFC107" />
    <path
        d="M5.51782 13.6606L11.2674 17.8772C12.8232 14.0255 16.5909 11.306 21.0001 11.306C23.6767 11.306 26.1118 12.3157 27.9659 13.9651L32.9158 9.01522C29.7903 6.10234 25.6096 4.30597 21.0001 4.30597C14.2783 4.30597 8.44907 8.10084 5.51782 13.6606Z"
        fill="#FF3D00" />
    <path
        d="M21 39.306C25.5203 39.306 29.6275 37.5761 32.7329 34.763L27.3167 30.1797C25.5006 31.5608 23.2816 32.3078 21 32.306C16.4483 32.306 12.5834 29.4036 11.1274 25.3532L5.42065 29.7501C8.3169 35.4175 14.1987 39.306 21 39.306Z"
        fill="#4CAF50" />
    <path
        d="M38.1596 18.3786H36.75V18.306H21V25.306H30.8901C30.1999 27.2453 28.9567 28.94 27.314 30.1806L27.3166 30.1788L32.7329 34.7621C32.3496 35.1103 38.5 30.556 38.5 21.806C38.5 20.6326 38.3792 19.4872 38.1596 18.3786Z"
        fill="#1976D2" />
</svg>