<svg width="331" height="18" viewBox="0 0 331 18" fill="none" xmlns="http://www.w3.org/2000/svg">
<line x1="0.0644531" y1="8.625" x2="148.5" y2="8.62499" stroke="black" stroke-width="0.75"/>
<path d="M166.868 8.63636C166.868 9.55682 166.702 10.3523 166.369 11.0227C166.037 11.6932 165.581 12.2102 165.001 12.5739C164.422 12.9375 163.76 13.1193 163.016 13.1193C162.271 13.1193 161.609 12.9375 161.03 12.5739C160.45 12.2102 159.994 11.6932 159.662 11.0227C159.33 10.3523 159.163 9.55682 159.163 8.63636C159.163 7.71591 159.33 6.92045 159.662 6.25C159.994 5.57955 160.45 5.0625 161.03 4.69886C161.609 4.33523 162.271 4.15341 163.016 4.15341C163.76 4.15341 164.422 4.33523 165.001 4.69886C165.581 5.0625 166.037 5.57955 166.369 6.25C166.702 6.92045 166.868 7.71591 166.868 8.63636ZM165.845 8.63636C165.845 7.88068 165.719 7.2429 165.466 6.72301C165.216 6.20312 164.876 5.80966 164.448 5.54261C164.021 5.27557 163.544 5.14205 163.016 5.14205C162.487 5.14205 162.009 5.27557 161.58 5.54261C161.153 5.80966 160.814 6.20312 160.561 6.72301C160.311 7.2429 160.186 7.88068 160.186 8.63636C160.186 9.39205 160.311 10.0298 160.561 10.5497C160.814 11.0696 161.153 11.4631 161.58 11.7301C162.009 11.9972 162.487 12.1307 163.016 12.1307C163.544 12.1307 164.021 11.9972 164.448 11.7301C164.876 11.4631 165.216 11.0696 165.466 10.5497C165.719 10.0298 165.845 9.39205 165.845 8.63636ZM168.509 13V6.45455H169.48V7.44318H169.548C169.668 7.11932 169.884 6.85653 170.196 6.65483C170.509 6.45312 170.861 6.35227 171.253 6.35227C171.327 6.35227 171.419 6.35369 171.53 6.35653C171.641 6.35937 171.724 6.36364 171.781 6.36932V7.39205C171.747 7.38352 171.669 7.37074 171.547 7.35369C171.428 7.33381 171.301 7.32386 171.168 7.32386C170.849 7.32386 170.565 7.39062 170.315 7.52415C170.068 7.65483 169.872 7.83665 169.727 8.0696C169.585 8.29972 169.514 8.5625 169.514 8.85795V13H168.509Z" fill="#776629"/>
<line x1="182" y1="8.625" x2="330.436" y2="8.62499" stroke="black" stroke-width="0.75"/>
</svg>
